HIERARCHY
ROOT Hips
{
 OFFSET 0.000000 0.000000 0.000000
 CHANNELS 6 Xposition Yposition Zposition Yrotation Xrotation Zrotation
 JOINT Chest
 {
  OFFSET 0.000000 9.857222 0.000240
  CHANNELS 3 Yrotation Xrotation Zrotation
  JOINT Chest2
  {
   OFFSET 0.000000 10.876940 -0.000436
   CHANNELS 3 Yrotation Xrotation Zrotation
   JOINT Chest3
   {
    OFFSET 0.000000 9.827798 0.000000
    CHANNELS 3 Yrotation Xrotation Zrotation
    JOINT Chest4
    {
     OFFSET 0.000000 9.827798 0.000000
     CHANNELS 3 Yrotation Xrotation Zrotation
     JOINT Neck
     {
      OFFSET 0.000000 13.831992 0.000000
      CHANNELS 3 Yrotation Xrotation Zrotation
      JOINT Head
      {
       OFFSET 0.000000 9.147643 -0.001036
       CHANNELS 3 Yrotation Xrotation Zrotation
       End Site
       {
        OFFSET 0.000000 17.515799 -0.000541
       }
      }
     }
     JOINT RightCollar
     {
      OFFSET -3.001579 7.717577 0.000000
      CHANNELS 3 Yrotation Xrotation Zrotation
      JOINT RightShoulder
      {
       OFFSET -14.002642 0.000000 0.000000
       CHANNELS 3 Yrotation Xrotation Zrotation
       JOINT RightElbow
       {
        OFFSET -30.053852 0.000000 0.000000
        CHANNELS 3 Yrotation Xrotation Zrotation
        JOINT RightWrist
        {
         OFFSET -24.564923 0.000000 -0.000000
         CHANNELS 3 Yrotation Xrotation Zrotation
         End Site
         {
          OFFSET -18.334355 0.000000 0.000000
         }
        }
       }
      }
     }
     JOINT LeftCollar
     {
      OFFSET 3.001579 7.717577 0.000000
      CHANNELS 3 Yrotation Xrotation Zrotation
      JOINT LeftShoulder
      {
       OFFSET 14.002642 0.000000 0.000000
       CHANNELS 3 Yrotation Xrotation Zrotation
       JOINT LeftElbow
       {
        OFFSET 30.053852 0.000000 0.000000
        CHANNELS 3 Yrotation Xrotation Zrotation
        JOINT LeftWrist
        {
         OFFSET 24.564923 0.000000 -0.000000
         CHANNELS 3 Yrotation Xrotation Zrotation
         End Site
         {
          OFFSET 18.334355 0.000000 0.000000
         }
        }
       }
      }
     }
    }
   }
  }
 }
 JOINT RightHip
 {
  OFFSET -8.003235 -0.001175 -0.000120
  CHANNELS 3 Yrotation Xrotation Zrotation
  JOINT RightKnee
  {
   OFFSET 0.000000 -41.759727 0.000113
   CHANNELS 3 Yrotation Xrotation Zrotation
   JOINT RightAnkle
   {
    OFFSET 0.000000 -40.728748 0.000159
    CHANNELS 3 Yrotation Xrotation Zrotation
    JOINT RightToe
    {
     OFFSET 0.000000 -6.515296 14.732841
     CHANNELS 3 Yrotation Xrotation Zrotation
     End Site
     {
      OFFSET 0.000000 -1.502839 6.412115
     }
    }
   }
  }
 }
 JOINT LeftHip
 {
  OFFSET 8.003235 -0.001175 -0.000120
  CHANNELS 3 Yrotation Xrotation Zrotation
  JOINT LeftKnee
  {
   OFFSET 0.000000 -41.759727 0.000113
   CHANNELS 3 Yrotation Xrotation Zrotation
   JOINT LeftAnkle
   {
    OFFSET 0.000000 -40.728748 0.000159
    CHANNELS 3 Yrotation Xrotation Zrotation
    JOINT LeftToe
    {
     OFFSET 0.000000 -6.515296 14.732841
     CHANNELS 3 Yrotation Xrotation Zrotation
     End Site
     {
      OFFSET 0.000000 -1.502839 6.412115
     }
    }
   }
  }
 }
}
MOTION
Frames: 11
Frame Time: 0.016667
0.000000 88.822259 0.000000 0.000000 -5.826342 0.000000 0.000000 11.116423 0.000000 0.000000 -5.290081 0.000000 0.000000 0.000000 0.000000 0.000000 0.000000 0.000000 0.000000 12.665069 0.000000 0.000000 0.575450 0.000000 0.000000 0.000000 0.000000 0.000000 0.000000 0.000000 2.337306 0.000000 0.000000 -2.337306 0.000000 0.000000 0.000000 0.000000 0.000000 0.000000 0.000000 0.000000 -2.337306 0.000000 0.000000 2.337306 0.000000 0.000000 0.000000 8.578828 0.000000 0.000000 1.905768 0.000000 0.000000 -4.658254 0.000000 0.000000 0.000000 0.000000 0.000000 8.578828 0.000000 0.000000 1.905768 0.000000 0.000000 -4.658254 0.000000 0.000000 0.000000 0.000000
4.888653 90.713882 2.977414 -33.227571 -9.744021 2.391391 2.812487 4.822762 -0.461904 1.247247 2.134137 -0.192950 1.247247 2.134137 -0.192950 0.936001 1.600217 -0.149054 -5.071481 27.307264 2.509654 -9.555071 14.864409 5.527347 2.325241 10.001534 10.346047 58.335275 14.770199 77.906183 38.024783 -34.834534 -18.228557 -0.774804 -2.220679 -2.786950 -16.324033 13.163480 -9.621106 -42.301527 5.821551 -72.041221 -23.848474 -7.415700 -1.035360 18.751202 -7.322889 -5.815528 -1.237056 11.742669 -2.786631 6.503183 5.286551 1.045375 -1.109592 -6.486577 -2.002007 -0.037941 -0.034523 0.123363 4.066083 7.146289 -2.687733 0.245223 11.438912 -0.141067 -0.436409 -7.522923 0.440639 0.041226 -0.035865 0.358413
4.876563 90.726706 2.875204 -33.278072 -9.714337 2.418160 2.792767 4.883645 -0.505864 1.245055 2.159060 -0.216986 1.245055 2.159060 -0.216986 0.934448 1.618862 -0.167121 -4.929179 27.817926 2.427840 -9.260815 15.790845 5.317022 2.323005 10.097868 10.363677 58.528357 14.783897 77.877540 38.408205 -35.054113 -18.559503 -0.773983 -2.255260 -2.782942 -16.350181 13.230921 -9.643026 -42.647603 5.804294 -71.923428 -23.483424 -7.843376 -0.911684 18.819444 -7.297069 -5.910965 -1.050660 11.638404 -2.666766 6.349375 5.357772 0.940276 -1.145749 -6.482457 -2.033876 -0.038934 -0.014923 0.127867 4.195936 7.314857 -2.550200 0.047300 10.950496 -0.342391 -0.409166 -7.265747 0.384408 0.059869 0.031948 0.368368
4.853029 90.738158 2.758521 -33.341637 -9.695805 2.435789 2.773363 4.986994 -0.538344 1.244170 2.204187 -0.235473 1.244170 2.204187 -0.235473 0.933862 1.652669 -0.181073 -4.764554 28.362821 2.344052 -8.927286 16.779676 5.098993 2.315361 10.157508 10.392743 58.760146 14.909327 77.814948 38.940632 -35.164891 -18.935245 -0.770503 -2.254784 -2.814706 -16.346503 13.261776 -9.648223 -43.035423 5.742976 -71.812699 -23.139842 -8.344074 -0.709626 18.913408 -7.272503 -6.007367 -0.837483 11.565780 -2.519984 6.203045 5.379383 0.825387 -1.201790 -6.452702 -2.066563 -0.039327 0.006698 0.128142 4.301578 7.487626 -2.393712 -0.016078 10.467332 -0.524136 -0.459158 -7.023727 0.318730 0.072596 0.095217 0.373593
4.826364 90.749760 2.637051 -33.413851 -9.662954 2.447057 2.757156 5.100944 -0.561020 1.244764 2.254501 -0.248582 1.244764 2.254501 -0.248582 0.934370 1.690378 -0.191008 -4.579333 28.913145 2.264476 -8.560243 17.778440 4.887060 2.311344 10.254794 10.436118 58.932676 15.080688 77.688143 39.513268 -35.074772 -19.317978 -0.776733 -2.258769 -2.863163 -16.321215 13.381098 -9.644569 -43.376300 5.565881 -71.657864 -22.871903 -8.854019 -0.451894 19.027273 -7.244900 -6.076008 -0.621714 11.497611 -2.368156 6.053430 5.355361 0.708992 -1.220754 -6.396076 -2.099048 -0.034700 0.024952 0.125101 4.405510 7.628987 -2.290806 -0.134742 10.016345 -0.596735 -0.422299 -6.800267 0.203144 0.069054 0.142553 0.366512
4.806968 90.761402 2.516794 -33.481605 -9.526162 2.452983 2.742710 5.178865 -0.578524 1.246829 2.288640 -0.257262 1.246829 2.288640 -0.257262 0.935962 1.715964 -0.197593 -4.373987 29.437430 2.196656 -8.163017 18.729598 4.696943 2.307244 10.400482 10.475553 58.962242 15.240404 77.505676 40.089635 -34.790496 -19.657913 -0.776638 -2.252900 -2.933231 -16.293695 13.560821 -9.631413 -43.570158 5.285563 -71.499774 -22.714182 -9.287201 -0.167289 19.154557 -7.222142 -6.089820 -0.419511 11.346263 -2.216183 5.952714 5.283800 0.585580 -1.275055 -6.314261 -2.113793 -0.027584 0.040327 0.116543 4.526579 7.661812 -2.213579 -0.358068 9.572323 -0.645900 -0.309215 -6.578771 0.097675 0.052968 0.174620 0.342441
4.788838 90.769125 2.399083 -33.533602 -9.212694 2.447051 2.728474 5.197014 -0.592808 1.248339 2.293420 -0.263902 1.248339 2.293420 -0.263902 0.937120 1.719535 -0.202588 -4.149618 29.903172 2.149421 -7.739791 19.573664 4.546345 2.307393 10.511094 10.518079 58.873803 15.410458 77.317946 40.672291 -34.423925 -19.952730 -0.776019 -2.243855 -3.032070 -16.277464 13.729074 -9.595706 -43.613093 4.950841 -71.389211 -22.683535 -9.585034 0.143033 19.263479 -7.233131 -6.059859 -0.277361 11.036478 -2.074142 5.960892 5.170268 0.468412 -1.362865 -6.218148 -2.115285 -0.019962 0.059508 0.101541 4.662850 7.503937 -2.154441 -0.614380 9.159329 -0.667444 -0.196290 -6.378237 -0.010841 0.038256 0.200389 0.316257
4.764407 90.772298 2.291773 -33.574408 -8.787053 2.431021 2.716715 5.192324 -0.600498 1.249257 2.286468 -0.267233 1.249257 2.286468 -0.267233 0.937819 1.714313 -0.205075 -3.912528 30.296489 2.119804 -7.300916 20.284945 4.431470 2.299555 10.593012 10.555992 58.746229 15.562026 77.124200 41.262172 -34.071628 -20.265977 -0.774695 -2.245040 -3.125249 -16.249828 13.845167 -9.537399 -43.585857 4.629729 -71.309929 -22.812294 -9.804737 0.442035 19.318392 -7.223815 -5.989246 -0.227820 10.652557 -1.959275 6.066439 4.988898 0.377457 -1.434808 -6.103417 -2.118947 -0.014450 0.083341 0.079617 4.775578 7.228732 -2.099094 -0.746643 8.771709 -0.676492 -0.180271 -6.204013 -0.097284 0.027338 0.224885 0.280079
4.739074 90.777039 2.215209 -33.605752 -8.339151 2.414778 2.710665 5.197926 -0.601990 1.250642 2.285915 -0.266635 1.250642 2.285915 -0.266635 0.938855 1.713900 -0.204630 -3.681962 30.618517 2.100678 -6.878588 20.866077 4.342245 2.264368 10.667794 10.589476 58.608664 15.687157 76.906981 41.844339 -33.812104 -20.587164 -0.771067 -2.251986 -3.206200 -16.211017 13.959618 -9.470286 -43.565711 4.327131 -71.214519 -23.092573 -9.913553 0.745874 19.343542 -7.215014 -5.957044 -0.285996 10.296314 -1.895603 6.214952 4.733666 0.317414 -1.471178 -5.961606 -2.119894 -0.008076 0.096110 0.053900 5.082194 6.955116 -2.081742 -0.923248 8.382811 -0.577536 -0.257464 -6.025496 -0.202121 0.009518 0.229007 0.238349
4.722661 90.784390 2.166781 -33.612086 -7.845869 2.400457 2.696259 5.203283 -0.599176 1.245414 2.288535 -0.264127 1.245414 2.288535 -0.264127 0.934926 1.715872 -0.202736 -3.468413 30.869163 2.083456 -6.489524 21.316703 4.264414 2.229002 10.728703 10.608127 58.462205 15.774227 76.669557 42.418340 -33.678880 -20.915588 -0.770322 -2.247046 -3.273262 -16.158544 14.086967 -9.394500 -43.612187 4.038276 -71.117598 -23.497626 -9.941290 1.085088 19.343290 -7.198674 -5.960026 -0.480311 9.927369 -1.911707 6.402742 4.425218 0.326345 -1.457833 -5.798698 -2.127117 -0.008894 0.096542 0.021625 5.532875 6.643764 -2.083366 -1.111631 8.010695 -0.448115 -0.437994 -5.842988 -0.280566 -0.001923 0.213119 0.191159
4.705863 90.790816 2.130758 -33.590343 -7.327449 2.380367 2.672273 5.208814 -0.581407 1.232312 2.292931 -0.257792 1.232312 2.292931 -0.257792 0.925079 1.719187 -0.197945 -3.285072 31.065303 2.057628 -6.154582 21.668029 4.179975 2.216887 10.758071 10.606187 58.301020 15.834141 76.460740 42.972924 -33.656693 -21.290058 -0.769846 -2.264540 -3.300074 -16.104286 14.201078 -9.323397 -43.642074 3.775838 -71.051865 -23.990794 -9.819499 1.421663 19.330552 -7.172028 -5.973578 -0.839699 9.546878 -1.990731 6.646618 4.086891 0.403264 -1.352360 -5.623947 -2.151633 -0.017891 0.090188 -0.016740 6.031651 6.285665 -2.043029 -1.316039 7.687432 -0.402889 -0.650092 -5.673996 -0.306113 0.006362 0.188371 0.148982
